<svg xmlns="http://www.w3.org/2000/svg" viewBox="0 0 360 220" role="img" aria-label="">
  <defs>
    <pattern id="grid" width="18" height="18" patternUnits="userSpaceOnUse">
      <path d="M18 0H0v18" fill="none" stroke="#d8a85a" stroke-opacity=".14" stroke-width="1"/>
    </pattern>
  </defs>
  <rect width="360" height="220" fill="url(#grid)"/>
  <g fill="none" stroke="#d8a85a" stroke-opacity=".72" stroke-width="3" stroke-linecap="round" stroke-linejoin="round">
    <circle cx="138" cy="112" r="48"/>
    <circle cx="138" cy="112" r="18"/>
    <path d="M186 92h74l28 22-28 22h-74"/>
    <path d="M92 112H38M286 114h38M138 64V28M138 160v34"/>
    <path d="M70 72l38 24M70 152l38-24M198 60l36 30M198 164l36-30"/>
    <path d="M38 92h38v40H38zM286 86h36v56h-36z"/>
    <path d="M110 36h56M108 186h60M220 36h70M218 186h70"/>
  </g>
  <g fill="#d8a85a" fill-opacity=".42">
    <circle cx="38" cy="92" r="4"/>
    <circle cx="322" cy="86" r="4"/>
    <circle cx="286" cy="142" r="4"/>
    <circle cx="166" cy="36" r="4"/>
  </g>
</svg>
