<svg xmlns="http://www.w3.org/2000/svg" viewBox="0 0 420 72" role="img" aria-label="">
  <defs>
    <linearGradient id="brass" x1="0" x2="1">
      <stop offset="0" stop-color="#8d5524"/>
      <stop offset=".42" stop-color="#f0c16b"/>
      <stop offset="1" stop-color="#9b642d"/>
    </linearGradient>
  </defs>
  <g fill="none" stroke="url(#brass)" stroke-width="6" stroke-linecap="round" stroke-linejoin="round">
    <path d="M18 48h124l30-24h76l30 24h124"/>
    <path d="M48 32h74M298 32h74"/>
    <circle cx="210" cy="36" r="26"/>
    <circle cx="210" cy="36" r="10"/>
    <path d="M210 4v18M210 50v18M178 36h18M224 36h18M188 14l12 14M220 44l12 14M232 14l-12 14M200 44l-12 14"/>
    <path d="M92 48l-22 16M116 48 94 64M328 48l22 16M304 48l22 16"/>
  </g>
</svg>
