<svg width="460" height="520" viewBox="0 0 460 520" fill="none" xmlns="http://www.w3.org/2000/svg" role="img" aria-label="フードを被ったエージェントのシルエット">
  <defs>
    <linearGradient id="body" x1="220" y1="56" x2="252" y2="518" gradientUnits="userSpaceOnUse">
      <stop stop-color="#27241f"/>
      <stop offset=".45" stop-color="#0d0d0d"/>
      <stop offset="1" stop-color="#020202"/>
    </linearGradient>
    <linearGradient id="edge" x1="83" y1="90" x2="402" y2="420" gradientUnits="userSpaceOnUse">
      <stop stop-color="#9fbd6f" stop-opacity=".55"/>
      <stop offset=".6" stop-color="#b99b5d" stop-opacity=".12"/>
      <stop offset="1" stop-color="#991b1b" stop-opacity=".25"/>
    </linearGradient>
  </defs>
  <path d="M234 18c-65 9-108 57-127 126-26 12-44 40-47 73 25-11 48-13 68-7-20 34-34 78-41 132-25 14-48 43-62 86 58-10 100-5 125 15-11 22-21 47-29 77h276c-9-34-22-61-38-82 30-15 66-15 110-3-15-50-43-85-83-102-9-42-24-81-44-116 20-6 40-4 61 7-8-41-29-69-63-85-13-65-48-108-106-119Z" fill="url(#body)" stroke="url(#edge)" stroke-width="3"/>
  <path d="M117 171c47-25 92-33 135-24 42 9 72 33 91 71-37-26-77-38-121-36-41 2-76 17-105 44-6-17-6-35 0-55Z" fill="#0a0a08" stroke="#51472f" stroke-width="2"/>
  <path d="M156 265c34-23 72-31 113-24 32 5 58 17 77 36-15 43-44 70-88 80-47 10-84-4-112-43 2-17 5-33 10-49Z" fill="#070707"/>
  <path d="M183 278c35 13 73 14 115 2-7 23-24 39-50 47-29 8-52 1-65-22v-27Z" fill="#111"/>
  <path d="M203 258c19-6 39-7 60-3M193 294c30 10 66 9 109-3" stroke="#9fbd6f" stroke-width="3" opacity=".78"/>
  <path d="M131 362c50 25 111 31 183 18M101 430c84 22 172 21 264-3M172 193l-31-47M300 200l34-49" stroke="#3b3325" stroke-width="8" opacity=".65"/>
  <path d="M80 396c52 24 102 36 150 35 60-1 111-16 153-45" stroke="#9fbd6f" stroke-width="2" opacity=".25"/>
  <path d="M319 303l45 18-13 44-47-17 15-45Z" fill="#14160f" stroke="#b99b5d" stroke-width="2"/>
  <path d="M333 314l17 8-8 20-18-8 9-20Z" fill="#9fbd6f" opacity=".62"/>
  <path d="M43 448h374" stroke="#9fbd6f" stroke-width="2" stroke-dasharray="8 10" opacity=".35"/>
</svg>
