<svg xmlns="http://www.w3.org/2000/svg" width="1200" height="800" viewBox="0 0 1200 800" role="img" aria-label="Dynamic data panel visual">
  <rect width="1200" height="800" fill="#0c1220"/>
  <g stroke="rgba(37,99,235,0.28)" stroke-width="1"><path d="M0 80h1200M0 160h1200M0 240h1200M0 320h1200M0 400h1200M0 480h1200M0 560h1200M0 640h1200M0 720h1200"/><path d="M100 0v800M250 0v800M400 0v800M550 0v800M700 0v800M850 0v800M1000 0v800"/></g>
  <polyline points="120,620 270,520 410,550 560,360 720,400 880,250 1040,220" fill="none" stroke="#ff5a1f" stroke-width="10"/>
  <polyline points="120,570 270,540 410,430 560,460 720,320 880,360 1040,300" fill="none" stroke="#3b82f6" stroke-width="8"/>
  <text x="120" y="120" fill="#ffffff" font-family="Segoe UI, Arial, sans-serif" font-size="44" font-weight="700">Telemetry</text>
</svg>
