<svg xmlns="http://www.w3.org/2000/svg" viewBox="0 0 180 82" role="img" aria-label="Mansion floor map ornament">
  <path fill="none" stroke="#b58b4a" stroke-width="2" opacity=".85" d="M10 58h30V38h28V18h48v18h22v16h32"/>
  <path fill="none" stroke="#b58b4a" stroke-width="2" opacity=".72" d="M20 22h34v16h28v28h34V50h24V28h20"/>
  <path fill="none" stroke="#d8c6a1" stroke-width="1" opacity=".46" d="M52 18v50M82 18v48M116 18v48M140 28v28M40 38v28"/>
  <path fill="none" stroke="#d8c6a1" stroke-width="1" opacity=".35" d="M10 58h160M20 22h140M68 38h70"/>
  <circle cx="150" cy="52" r="10" fill="none" stroke="#991b1b" stroke-width="2"/>
  <path fill="#991b1b" d="M150 44l3 7h7l-6 4 3 7-7-4-7 4 3-7-6-4h7l3-7Z"/>
</svg>
